<svg width="91" height="34" viewBox="0 0 91 34" fill="none" xmlns="http://www.w3.org/2000/svg">
<g clip-path="url(#clip0_20_38)">
<path d="M74.3255 0.533691H16.9183C7.77982 0.533691 0.371582 7.94193 0.371582 17.0805C0.371582 26.219 7.77982 33.6272 16.9183 33.6272H74.3255C83.464 33.6272 90.8723 26.219 90.8723 17.0805C90.8723 7.94193 83.464 0.533691 74.3255 0.533691Z" fill="#857C7C"/>
<path d="M23.3389 20.1197V19.7793C23.9224 19.7793 24.2628 19.6712 24.36 19.4551V11.3019C24.2628 11.0858 23.9224 10.9778 23.3389 10.9778V10.6374H26.8724V10.9778C26.2889 10.9778 25.9485 11.0858 25.8513 11.3019V19.5686H29.5469C29.8171 19.4497 30.0602 19.1093 30.2764 18.5474H30.6005L30.2115 20.1197H23.3389ZM32.8717 16.0998C32.8717 17.3317 33.104 18.2556 33.5687 18.8716C34.0442 19.4875 34.6493 19.7955 35.3841 19.7955C35.9676 19.7955 36.4377 19.5361 36.7943 19.0175C37.1509 18.488 37.3292 17.8126 37.3292 16.9913C37.3292 14.5492 36.4809 13.3281 34.7844 13.3281C34.2116 13.3281 33.747 13.6036 33.3904 14.1547C33.0446 14.695 32.8717 15.3434 32.8717 16.0998ZM35.1734 20.2818C33.9631 20.2818 33.0176 19.9306 32.3368 19.2282C31.656 18.515 31.3156 17.5803 31.3156 16.424C31.3156 15.3758 31.6236 14.5167 32.2395 13.8468C32.8555 13.166 33.7956 12.8256 35.0599 12.8256C36.335 12.8256 37.2914 13.166 37.9289 13.8468C38.5665 14.5167 38.8853 15.4407 38.8853 16.6185C38.8853 17.6667 38.5773 18.542 37.9613 19.2444C37.3562 19.936 36.4269 20.2818 35.1734 20.2818ZM46.8426 12.8256V19.6496C46.8426 20.7626 46.5725 21.6595 46.0322 22.3403C45.5027 23.0211 44.7246 23.3615 43.6981 23.3615C42.7796 23.3615 42.0393 23.2048 41.4774 22.8914C40.9263 22.578 40.6508 22.2485 40.6508 21.9027C40.6508 21.6541 40.7156 21.4542 40.8453 21.3029C40.9749 21.1625 41.1424 21.0922 41.3478 21.0922C41.5423 21.0922 41.7098 21.1408 41.8502 21.2381C42.0015 21.3354 42.0772 21.4758 42.0772 21.6595C42.0772 22.0053 41.9421 22.2323 41.6719 22.3403C41.9637 22.6321 42.585 22.778 43.536 22.778C44.649 22.778 45.2595 21.7838 45.3676 19.7955C44.8705 20.1197 44.233 20.2818 43.4549 20.2818C43.0983 20.2818 42.7417 20.2277 42.3851 20.1197C42.0393 20.0008 41.6881 19.8117 41.3315 19.5524C40.9858 19.293 40.6994 18.9094 40.4725 18.4015C40.2563 17.8828 40.1483 17.2777 40.1483 16.5861C40.1483 15.3758 40.4833 14.4465 41.1532 13.7981C41.834 13.1498 42.7201 12.8256 43.8115 12.8256C44.4923 12.8256 45.0866 12.9985 45.5945 13.3443C46.1456 12.9985 46.5617 12.8256 46.8426 12.8256ZM45.3838 19.2606V19.0661V13.7171C44.9948 13.4902 44.5031 13.3767 43.9088 13.3767C43.3145 13.3767 42.7958 13.6631 42.3527 14.2358C41.9097 14.7977 41.6881 15.5811 41.6881 16.5861C41.6881 17.537 41.8664 18.2989 42.223 18.8716C42.5796 19.4443 43.0443 19.7307 43.617 19.7307C44.3302 19.7307 44.9192 19.574 45.3838 19.2606ZM52.3337 20.1197V19.7793C52.9173 19.7793 53.2576 19.6712 53.3549 19.4551V13.9764C52.6849 13.9224 52.3445 13.8954 52.3337 13.8954V13.5226C52.539 13.5226 52.9389 13.4091 53.5332 13.1822C54.1383 12.9445 54.5652 12.8256 54.8137 12.8256V19.4551C54.911 19.6712 55.2514 19.7793 55.8349 19.7793V20.1197H52.3337ZM54.0357 11.7882C53.7979 11.7882 53.5872 11.7018 53.4035 11.5289C53.2306 11.3452 53.1442 11.1128 53.1442 10.8319C53.1442 10.5833 53.2198 10.3672 53.3711 10.1835C53.5332 9.99981 53.7385 9.90796 53.9871 9.90796C54.2248 9.90796 54.4355 9.99981 54.6192 10.1835C54.8029 10.3672 54.8948 10.5995 54.8948 10.8805C54.8948 11.129 54.8137 11.3452 54.6516 11.5289C54.4895 11.7018 54.2842 11.7882 54.0357 11.7882ZM56.6709 20.1197V19.7793C57.2545 19.7793 57.5949 19.6712 57.6921 19.4551V13.9764C57.0221 13.9224 56.6817 13.8954 56.6709 13.8954V13.5226C56.8763 13.5226 57.2761 13.4091 57.8704 13.1822C58.4755 12.9445 58.9024 12.8256 59.1509 12.8256V13.5712C59.7345 13.0741 60.3774 12.8256 61.0798 12.8256C62.0848 12.8256 62.8088 13.0147 63.2518 13.3929C63.7057 13.7603 63.9326 14.3384 63.9326 15.1273V19.4551C64.0299 19.6712 64.3702 19.7793 64.9538 19.7793V20.1197H61.4526V19.7793C62.0361 19.7793 62.3765 19.6712 62.4738 19.4551V15.0138C62.4738 13.9224 61.9767 13.3767 60.9826 13.3767C60.3018 13.3767 59.6912 13.6144 59.1509 14.0899V19.4551C59.2482 19.6712 59.5886 19.7793 60.1721 19.7793V20.1197H56.6709Z" fill="white"/>
</g>
<defs>
<clipPath id="clip0_20_38">
<rect width="90.5007" height="33.0935" fill="white" transform="translate(0.372559 0.533691)"/>
</clipPath>
</defs>
</svg>
