<svg width="78" height="34" viewBox="0 0 78 34" fill="none" xmlns="http://www.w3.org/2000/svg">
<g clip-path="url(#clip0_20_42)">
<path d="M61.23 0.858521H17.3305C8.19193 0.858521 0.783691 8.26676 0.783691 17.4053C0.783691 26.5438 8.19193 33.952 17.3305 33.952H61.23C70.3685 33.952 77.7768 26.5438 77.7768 17.4053C77.7768 8.26676 70.3685 0.858521 61.23 0.858521Z" fill="#888282"/>
<path d="M17.6518 20.6062C17.1223 20.6062 16.582 20.5252 16.0309 20.3631C15.4798 20.201 15.1934 20.12 15.1718 20.12C15.107 20.12 15.0313 20.1524 14.9449 20.2172C14.8584 20.282 14.8152 20.3577 14.8152 20.4441H14.4424V18.1911H14.799C14.9178 18.8394 15.2366 19.3149 15.7553 19.6175C16.2848 19.9092 16.8846 20.0551 17.5545 20.0551C18.1272 20.0551 18.5973 19.9254 18.9647 19.6661C19.3321 19.4068 19.5158 19.0177 19.5158 18.499C19.5158 18.2613 19.4618 18.0452 19.3537 17.8507C19.2565 17.6562 19.0998 17.4779 18.8837 17.3158C18.6784 17.1429 18.4784 17.0024 18.2839 16.8944C18.0894 16.7755 17.8355 16.635 17.5221 16.4729C17.2195 16.3 16.9872 16.1649 16.8251 16.0677C16.4469 15.83 16.1659 15.6517 15.9822 15.5328C15.7985 15.4031 15.5608 15.214 15.269 14.9655C14.9881 14.7169 14.7828 14.4576 14.6531 14.1874C14.5234 13.9173 14.4586 13.6255 14.4586 13.3121C14.4586 12.6746 14.7504 12.0965 15.3339 11.5778C15.9174 11.0591 16.5712 10.7997 17.2952 10.7997C17.6086 10.7997 17.9976 10.8808 18.4622 11.0429C18.9269 11.205 19.1916 11.286 19.2565 11.286C19.3861 11.286 19.451 11.178 19.451 10.9618H19.8238L19.9859 13.0204H19.6293C19.5644 12.5449 19.3267 12.1505 18.9161 11.8371C18.5055 11.5129 17.9706 11.3508 17.3114 11.3508C16.8143 11.3508 16.4145 11.5129 16.1119 11.8371C15.8202 12.1505 15.6743 12.4693 15.6743 12.7935C15.6743 12.9988 15.7229 13.1933 15.8202 13.377C15.9174 13.5499 16.0687 13.712 16.274 13.8633C16.4793 14.0145 16.6738 14.1496 16.8575 14.2685C17.0412 14.3765 17.2844 14.5116 17.5869 14.6737C17.9003 14.8358 18.1381 14.9655 18.3001 15.0627C18.7432 15.3329 19.062 15.5328 19.2565 15.6625C19.451 15.7921 19.6995 15.992 20.0021 16.2622C20.3155 16.5323 20.5316 16.8133 20.6505 17.1051C20.7801 17.386 20.845 17.6994 20.845 18.0452C20.845 18.8448 20.5208 19.4716 19.8724 19.9254C19.2241 20.3793 18.4838 20.6062 17.6518 20.6062ZM21.732 20.4441V20.1037C22.3155 20.1037 22.6559 19.9957 22.7532 19.7796V14.3009C22.0832 14.2469 21.7428 14.2199 21.732 14.2199V13.847C21.9373 13.847 22.3371 13.7336 22.9315 13.5067C23.5366 13.2689 23.9635 13.1501 24.212 13.1501V19.7796C24.3093 19.9957 24.6496 20.1037 25.2332 20.1037V20.4441H21.732ZM23.434 12.1127C23.1962 12.1127 22.9855 12.0262 22.8018 11.8533C22.6289 11.6696 22.5425 11.4373 22.5425 11.1563C22.5425 10.9078 22.6181 10.6917 22.7694 10.508C22.9315 10.3243 23.1368 10.2324 23.3853 10.2324C23.6231 10.2324 23.8338 10.3243 24.0175 10.508C24.2012 10.6917 24.293 10.924 24.293 11.205C24.293 11.4535 24.212 11.6696 24.0499 11.8533C23.8878 12.0262 23.6825 12.1127 23.434 12.1127ZM32.8141 13.1501V19.9741C32.8141 21.0871 32.5439 21.984 32.0036 22.6648C31.4741 23.3456 30.6961 23.686 29.6695 23.686C28.751 23.686 28.0108 23.5293 27.4489 23.2159C26.8978 22.9025 26.6222 22.5729 26.6222 22.2271C26.6222 21.9786 26.6871 21.7787 26.8167 21.6274C26.9464 21.4869 27.1139 21.4167 27.3192 21.4167C27.5137 21.4167 27.6812 21.4653 27.8217 21.5626C27.973 21.6598 28.0486 21.8003 28.0486 21.984C28.0486 22.3298 27.9135 22.5567 27.6434 22.6648C27.9352 22.9565 28.5565 23.1024 29.5074 23.1024C30.6205 23.1024 31.231 22.1083 31.3391 20.12C30.842 20.4441 30.2044 20.6062 29.4264 20.6062C29.0698 20.6062 28.7132 20.5522 28.3566 20.4441C28.0108 20.3253 27.6596 20.1362 27.303 19.8768C26.9572 19.6175 26.6708 19.2339 26.4439 18.726C26.2278 18.2073 26.1197 17.6021 26.1197 16.9106C26.1197 15.7003 26.4547 14.771 27.1247 14.1226C27.8055 13.4742 28.6916 13.1501 29.783 13.1501C30.4638 13.1501 31.0581 13.323 31.566 13.6687C32.1171 13.323 32.5331 13.1501 32.8141 13.1501ZM31.3553 19.5851V19.3905V14.0416C30.9663 13.8146 30.4746 13.7012 29.8802 13.7012C29.2859 13.7012 28.7672 13.9875 28.3242 14.5602C27.8811 15.1222 27.6596 15.9056 27.6596 16.9106C27.6596 17.8615 27.8379 18.6233 28.1945 19.196C28.5511 19.7688 29.0158 20.0551 29.5885 20.0551C30.3017 20.0551 30.8906 19.8984 31.3553 19.5851ZM34.4112 20.4441V20.1037C34.9947 20.1037 35.3351 19.9957 35.4324 19.7796V14.3009C34.7624 14.2469 34.422 14.2199 34.4112 14.2199V13.847C34.6165 13.847 35.0164 13.7336 35.6107 13.5067C36.2158 13.2689 36.6427 13.1501 36.8912 13.1501V13.8957C37.4747 13.3986 38.1177 13.1501 38.8201 13.1501C39.8251 13.1501 40.5491 13.3392 40.9921 13.7174C41.446 14.0848 41.6729 14.6629 41.6729 15.4517V19.7796C41.7701 19.9957 42.1105 20.1037 42.6941 20.1037V20.4441H39.1929V20.1037C39.7764 20.1037 40.1168 19.9957 40.2141 19.7796V15.3383C40.2141 14.2469 39.717 13.7012 38.7228 13.7012C38.0421 13.7012 37.4315 13.9389 36.8912 14.4144V19.7796C36.9885 19.9957 37.3289 20.1037 37.9124 20.1037V20.4441H34.4112ZM54.3942 19.4554C54.3942 19.4554 54.7346 19.4824 55.4153 19.5364V19.9092C55.2101 19.9092 54.8049 20.0281 54.1997 20.2658C53.6054 20.4928 53.184 20.6062 52.9354 20.6062V19.8606C52.3519 20.3577 51.7089 20.6062 51.0065 20.6062C50.0016 20.6062 49.2722 20.4225 48.8183 20.0551C48.3753 19.6769 48.1538 19.0934 48.1538 18.3045V13.9767C48.0565 13.7606 47.7161 13.6525 47.1326 13.6525V13.3121H49.6126V18.418C49.6126 19.5094 50.1096 20.0551 51.1038 20.0551C51.7846 20.0551 52.3951 19.8174 52.9354 19.3419V13.9767C52.8382 13.7606 52.4978 13.6525 51.9143 13.6525V13.3121H54.3942V19.4554ZM56.1254 23.5563V23.2159C56.709 23.2159 57.0494 23.1078 57.1466 22.8917V14.3009C57.1466 14.3009 56.8062 14.2739 56.1254 14.2199V13.847C56.3308 13.847 56.7306 13.7336 57.3249 13.5067C57.93 13.2689 58.3569 13.1501 58.6054 13.1501V13.685C59.1241 13.3284 59.7725 13.1501 60.5505 13.1501C60.9071 13.1501 61.2583 13.2149 61.6041 13.3446C61.9607 13.4634 62.3119 13.6579 62.6577 13.9281C63.0143 14.1874 63.3007 14.5765 63.5168 15.0951C63.7437 15.6138 63.8572 16.219 63.8572 16.9106C63.8572 18.11 63.5222 19.0285 62.8522 19.6661C62.1822 20.2929 61.2961 20.6062 60.1939 20.6062C59.5672 20.6062 59.0377 20.4874 58.6054 20.2496V22.8917C58.7027 23.1078 59.0431 23.2159 59.6266 23.2159V23.5563H56.1254ZM58.6054 19.7309C59.0161 19.9471 59.5131 20.0551 60.0967 20.0551C60.691 20.0551 61.2097 19.7796 61.6527 19.2285C62.0958 18.6773 62.3173 17.9047 62.3173 16.9106C62.3173 16.2514 62.1228 15.5544 61.7338 14.8196C61.3556 14.074 60.9071 13.7012 60.3884 13.7012C59.6428 13.7012 59.0485 13.8741 58.6054 14.2199V19.7309Z" fill="white"/>
</g>
<defs>
<clipPath id="clip0_20_42">
<rect width="76.9931" height="33.0935" fill="white" transform="translate(0.783691 0.858521)"/>
</clipPath>
</defs>
</svg>
